<?xml version="1.0" encoding="UTF-8" standalone="no"?><svg xmlns="http://www.w3.org/2000/svg" xmlns:xlink="http://www.w3.org/1999/xlink" contentScriptType="application/ecmascript" contentStyleType="text/css" height="489px" preserveAspectRatio="none" style="width:508px;height:489px;" version="1.1" viewBox="0 0 508 489" width="508px" zoomAndPan="magnify"><defs><filter height="300%" id="f1sum1o409pazp" width="300%" x="-1" y="-1"><feGaussianBlur result="blurOut" stdDeviation="2.0"/><feColorMatrix in="blurOut" result="blurOut2" type="matrix" values="0 0 0 0 0 0 0 0 0 0 0 0 0 0 0 0 0 0 .4 0"/><feOffset dx="4.0" dy="4.0" in="blurOut2" result="blurOut3"/><feBlend in="SourceGraphic" in2="blurOut3" mode="normal"/></filter></defs><g><!--MD5=[16fe15c0bee884e61ae19703bbc8dd30]
entity Játékos--><ellipse cx="252" cy="129" fill="#FEFECE" filter="url(#f1sum1o409pazp)" rx="8" ry="8" style="stroke: #A80036; stroke-width: 2.0;"/><path d="M252,137 L252,164 M239,145 L265,145 M252,164 L239,179 M252,164 L265,179 " fill="none" filter="url(#f1sum1o409pazp)" style="stroke: #A80036; stroke-width: 2.0;"/><text fill="#000000" font-family="sans-serif" font-size="14" lengthAdjust="spacingAndGlyphs" textLength="50" x="227" y="198.9951">Játékos</text><ellipse cx="382.1274" cy="33.5255" fill="#FEFECE" filter="url(#f1sum1o409pazp)" rx="115.6274" ry="25.5255" style="stroke: #A80036; stroke-width: 1.5;"/><text fill="#000000" font-family="sans-serif" font-size="14" lengthAdjust="spacingAndGlyphs" textLength="210" x="277.1274" y="38.1739">Játékosok neveinek megadása</text><ellipse cx="192.8553" cy="33.5236" fill="#FEFECE" filter="url(#f1sum1o409pazp)" rx="38.3553" ry="14.5236" style="stroke: #A80036; stroke-width: 1.5;"/><text fill="#000000" font-family="sans-serif" font-size="14" lengthAdjust="spacingAndGlyphs" textLength="50" x="167.8553" y="38.1721">Kilépés</text><ellipse cx="382.2471" cy="160.4494" fill="#FEFECE" filter="url(#f1sum1o409pazp)" rx="70.2471" ry="16.4494" style="stroke: #A80036; stroke-width: 1.5;"/><text fill="#000000" font-family="sans-serif" font-size="14" lengthAdjust="spacingAndGlyphs" textLength="107" x="328.7471" y="165.0979">Új játék indítása</text><ellipse cx="99.2229" cy="160.5446" fill="#FEFECE" filter="url(#f1sum1o409pazp)" rx="93.2229" ry="21.0446" style="stroke: #A80036; stroke-width: 1.5;"/><text fill="#000000" font-family="sans-serif" font-size="14" lengthAdjust="spacingAndGlyphs" textLength="161" x="18.7229" y="165.193">Mentett játék betöltése</text><ellipse cx="251.7894" cy="279.2579" fill="#FEFECE" filter="url(#f1sum1o409pazp)" rx="74.2894" ry="17.2579" style="stroke: #A80036; stroke-width: 1.5;"/><text fill="#000000" font-family="sans-serif" font-size="14" lengthAdjust="spacingAndGlyphs" textLength="117" x="193.2894" y="283.9063">Lépés a játékban</text><ellipse cx="192.1107" cy="372.8221" fill="#FEFECE" filter="url(#f1sum1o409pazp)" rx="67.1107" ry="15.8221" style="stroke: #A80036; stroke-width: 1.5;"/><text fill="#000000" font-family="sans-serif" font-size="14" lengthAdjust="spacingAndGlyphs" textLength="99" x="142.6107" y="377.4706">Játék mentése</text><ellipse cx="252.2046" cy="463.5236" fill="#FEFECE" filter="url(#f1sum1o409pazp)" rx="53.2046" ry="14.5236" style="stroke: #A80036; stroke-width: 1.5;"/><text fill="#000000" font-family="sans-serif" font-size="14" lengthAdjust="spacingAndGlyphs" textLength="71" x="216.7046" y="468.1721">Játék vége</text><!--MD5=[14575ce3d6cc3f118f81b9c3c88ecdc5]
reverse link Játékosok neveinek megadása to Játékos--><path d="M352.4624,62.356 C329.7557,84.5386 298.7284,114.8499 277.1881,135.8932 " fill="none" id="Játékosok neveinek megadása&lt;-Játékos" style="stroke: #A80036; stroke-width: 1.0;"/><polygon fill="#A80036" points="356.3162,58.5911,347.0832,62.019,352.7396,62.0851,352.6736,67.7416,356.3162,58.5911" style="stroke: #A80036; stroke-width: 1.0;"/><!--MD5=[33432e9587c82bb9e9446b1894ef0f00]
reverse link Kilépés to Játékos--><path d="M201.9396,52.7428 C210.0433,70.1865 222.2648,96.4937 232.6033,118.7478 " fill="none" id="Kilépés&lt;-Játékos" style="stroke: #A80036; stroke-width: 1.0;"/><polygon fill="#A80036" points="199.7681,48.0685,199.9325,57.916,201.8748,52.603,207.1878,54.5453,199.7681,48.0685" style="stroke: #A80036; stroke-width: 1.0;"/><!--MD5=[d49633103cb3022129e3ffdee6f962d2]
link Játékosok neveinek megadása to Új játék indítása--><path d="M382,59.2003 C382,82.5514 382,116.6246 382,138.6807 " fill="none" id="Játékosok neveinek megadása-&gt;Új játék indítása" style="stroke: #A80036; stroke-width: 1.0; stroke-dasharray: 7.0,7.0;"/><polygon fill="#A80036" points="382,143.7418,386,134.7418,382,138.7418,378,134.7418,382,143.7418" style="stroke: #A80036; stroke-width: 1.0;"/><!--MD5=[3499c440a9191ce94e33835b050b7ff2]
link Játékos to Új játék indítása--><path d="M277.1367,160.5 C287.0199,160.5 296.9031,160.5 306.7863,160.5 " fill="none" id="Játékos-&gt;Új játék indítása" style="stroke: #A80036; stroke-width: 1.0;"/><polygon fill="#A80036" points="311.9546,160.5,302.9546,156.5,306.9546,160.5,302.9546,164.5,311.9546,160.5" style="stroke: #A80036; stroke-width: 1.0;"/><!--MD5=[990242d96c81d0fe6f0ded06f7a9a2c2]
reverse link Mentett játék betöltése to Játékos--><path d="M197.3632,160.5 C207.1709,160.5 216.9786,160.5 226.7864,160.5 " fill="none" id="Mentett játék betöltése&lt;-Játékos" style="stroke: #A80036; stroke-width: 1.0;"/><polygon fill="#A80036" points="192.2344,160.5,201.2344,164.5,197.2344,160.5,201.2344,156.5,192.2344,160.5" style="stroke: #A80036; stroke-width: 1.0;"/><!--MD5=[bb4e6f82d4f25737cca3d07e365bcb80]
link Mentett játék betöltése to Lépés a játékban--><path d="M124.9544,180.6867 C153.233,202.6813 198.1908,237.6484 226.3494,259.5495 " fill="none" id="Mentett játék betöltése-&gt;Lépés a játékban" style="stroke: #A80036; stroke-width: 1.0;"/><polygon fill="#A80036" points="230.3781,262.6829,225.7296,254.0001,226.4313,259.6132,220.8181,260.3149,230.3781,262.6829" style="stroke: #A80036; stroke-width: 1.0;"/><!--MD5=[2ca1163efa17c223ed8ceefdf1890e14]
link Játékos to Lépés a játékban--><path d="M252,202.1204 C252,220.5467 252,241.495 252,256.9442 " fill="none" id="Játékos-&gt;Lépés a játékban" style="stroke: #A80036; stroke-width: 1.0;"/><polygon fill="#A80036" points="252,261.9611,256,252.9611,252,256.9611,248,252.9611,252,261.9611" style="stroke: #A80036; stroke-width: 1.0;"/><!--MD5=[3f525927d4799d1960736ec1efef37cc]
link Új játék indítása to Lépés a játékban--><path d="M364.4676,176.5489 C341.3109,197.7462 300.4811,235.1212 274.9064,258.5318 " fill="none" id="Új játék indítása-&gt;Lépés a játékban" style="stroke: #A80036; stroke-width: 1.0;"/><polygon fill="#A80036" points="270.9379,262.1646,280.2773,259.0381,274.626,258.7885,274.8756,253.1372,270.9379,262.1646" style="stroke: #A80036; stroke-width: 1.0;"/><!--MD5=[f1f8f3229a83d2bbaf256241aacb5734]
link Lépés a játékban to Játék mentése--><path d="M240.7145,297.0866 C230.599,312.8499 215.7571,335.9785 205.1168,352.5597 " fill="none" id="Lépés a játékban-&gt;Játék mentése" style="stroke: #A80036; stroke-width: 1.0;"/><polygon fill="#A80036" points="202.2345,357.0512,210.4617,351.6371,204.935,352.8432,203.7289,347.3164,202.2345,357.0512" style="stroke: #A80036; stroke-width: 1.0;"/><!--MD5=[ff9d34f3d107de191ce649795ce2489d]
link Lépés a játékban to Játék vége--><path d="M260.3773,297.1935 C269.5652,318.7318 282.3428,356.2841 277,389 C273.8391,408.3552 266.3453,429.4641 260.3814,444.2543 " fill="none" id="Lépés a játékban-&gt;Játék vége" style="stroke: #A80036; stroke-width: 1.0;"/><polygon fill="#A80036" points="258.4259,449.0163,265.5449,442.2105,260.3253,444.3911,258.1446,439.1715,258.4259,449.0163" style="stroke: #A80036; stroke-width: 1.0;"/><!--MD5=[cf012f34735449903ee2d016e5f6258a]
link Játék mentése to Játék vége--><path d="M202.7268,389.1796 C213.0175,404.7014 228.5551,428.1373 239.4235,444.5304 " fill="none" id="Játék mentése-&gt;Játék vége" style="stroke: #A80036; stroke-width: 1.0;"/><polygon fill="#A80036" points="242.3568,448.9549,240.7172,439.2435,239.5938,444.7877,234.0496,443.6642,242.3568,448.9549" style="stroke: #A80036; stroke-width: 1.0;"/><!--MD5=[1584e3c3a84e2f21f046aca2fe577cce]
@startuml
actor Játékos

Játékos -up-> (Játékosok neveinek megadása)
Játékos -up-> (Kilépés)
(Játékosok neveinek megadása) .down.> (Új játék indítása)
Játékos -right-> (Új játék indítása)
Játékos -left-> (Mentett játék betöltése)
(Mentett játék betöltése) -down-> (Lépés a játékban)
Játékos -down-> (Lépés a játékban)
(Új játék indítása) -down-> (Lépés a játékban)
(Lépés a játékban) -down-> (Játék mentése)
(Lépés a játékban) -down-> (Játék vége)
(Játék mentése) -down-> (Játék vége)
@enduml

PlantUML version 1.2019.12(Sun Nov 03 10:24:54 UTC 2019)
(GPL source distribution)
Java Runtime: OpenJDK Runtime Environment
JVM: OpenJDK 64-Bit Server VM
Java Version: 1.8.0_232-heroku-b09
Operating System: Linux
Default Encoding: UTF-8
Language: en
Country: US
--></g></svg>