<?xml version="1.0" encoding="UTF-8" standalone="no"?><svg xmlns="http://www.w3.org/2000/svg" xmlns:xlink="http://www.w3.org/1999/xlink" contentScriptType="application/ecmascript" contentStyleType="text/css" height="397px" preserveAspectRatio="none" style="width:360px;height:397px;" version="1.1" viewBox="0 0 360 397" width="360px" zoomAndPan="magnify"><defs><filter height="300%" id="f1etz6ycnllcdq" width="300%" x="-1" y="-1"><feGaussianBlur result="blurOut" stdDeviation="2.0"/><feColorMatrix in="blurOut" result="blurOut2" type="matrix" values="0 0 0 0 0 0 0 0 0 0 0 0 0 0 0 0 0 0 .4 0"/><feOffset dx="4.0" dy="4.0" in="blurOut2" result="blurOut3"/><feBlend in="SourceGraphic" in2="blurOut3" mode="normal"/></filter></defs><g><!--MD5=[16fe15c0bee884e61ae19703bbc8dd30]
entity Játékos--><ellipse cx="103.5" cy="129" fill="#FEFECE" filter="url(#f1etz6ycnllcdq)" rx="8" ry="8" style="stroke: #A80036; stroke-width: 2.0;"/><path d="M103.5,137 L103.5,164 M90.5,145 L116.5,145 M103.5,164 L90.5,179 M103.5,164 L116.5,179 " fill="none" filter="url(#f1etz6ycnllcdq)" style="stroke: #A80036; stroke-width: 2.0;"/><text fill="#000000" font-family="sans-serif" font-size="14" lengthAdjust="spacingAndGlyphs" textLength="50" x="78.5" y="198.9951">Játékos</text><ellipse cx="233.6274" cy="33.5255" fill="#FEFECE" filter="url(#f1etz6ycnllcdq)" rx="115.6274" ry="25.5255" style="stroke: #A80036; stroke-width: 1.5;"/><text fill="#000000" font-family="sans-serif" font-size="14" lengthAdjust="spacingAndGlyphs" textLength="210" x="128.6274" y="38.1739">Játékosok neveinek megadása</text><ellipse cx="44.3553" cy="33.5236" fill="#FEFECE" filter="url(#f1etz6ycnllcdq)" rx="38.3553" ry="14.5236" style="stroke: #A80036; stroke-width: 1.5;"/><text fill="#000000" font-family="sans-serif" font-size="14" lengthAdjust="spacingAndGlyphs" textLength="50" x="19.3553" y="38.1721">Kilépés</text><ellipse cx="233.7471" cy="160.4494" fill="#FEFECE" filter="url(#f1etz6ycnllcdq)" rx="70.2471" ry="16.4494" style="stroke: #A80036; stroke-width: 1.5;"/><text fill="#000000" font-family="sans-serif" font-size="14" lengthAdjust="spacingAndGlyphs" textLength="107" x="180.2471" y="165.0979">Új játék indítása</text><ellipse cx="168.2894" cy="279.2579" fill="#FEFECE" filter="url(#f1etz6ycnllcdq)" rx="74.2894" ry="17.2579" style="stroke: #A80036; stroke-width: 1.5;"/><text fill="#000000" font-family="sans-serif" font-size="14" lengthAdjust="spacingAndGlyphs" textLength="117" x="109.7894" y="283.9063">Lépés a játékban</text><ellipse cx="168.7046" cy="371.5236" fill="#FEFECE" filter="url(#f1etz6ycnllcdq)" rx="53.2046" ry="14.5236" style="stroke: #A80036; stroke-width: 1.5;"/><text fill="#000000" font-family="sans-serif" font-size="14" lengthAdjust="spacingAndGlyphs" textLength="71" x="133.2046" y="376.1721">Játék vége</text><!--MD5=[14575ce3d6cc3f118f81b9c3c88ecdc5]
reverse link Játékosok neveinek megadása to Játékos--><path d="M203.9624,62.356 C181.2557,84.5386 150.2284,114.8499 128.6881,135.8932 " fill="none" id="Játékosok neveinek megadása&lt;-Játékos" style="stroke: #A80036; stroke-width: 1.0;"/><polygon fill="#A80036" points="207.8162,58.5911,198.5832,62.019,204.2396,62.0851,204.1736,67.7416,207.8162,58.5911" style="stroke: #A80036; stroke-width: 1.0;"/><!--MD5=[33432e9587c82bb9e9446b1894ef0f00]
reverse link Kilépés to Játékos--><path d="M53.4396,52.7428 C61.5433,70.1865 73.7648,96.4937 84.1033,118.7478 " fill="none" id="Kilépés&lt;-Játékos" style="stroke: #A80036; stroke-width: 1.0;"/><polygon fill="#A80036" points="51.2681,48.0685,51.4325,57.916,53.3748,52.603,58.6878,54.5453,51.2681,48.0685" style="stroke: #A80036; stroke-width: 1.0;"/><!--MD5=[d49633103cb3022129e3ffdee6f962d2]
link Játékosok neveinek megadása to Új játék indítása--><path d="M233.5,59.2003 C233.5,82.5514 233.5,116.6246 233.5,138.6807 " fill="none" id="Játékosok neveinek megadása-&gt;Új játék indítása" style="stroke: #A80036; stroke-width: 1.0; stroke-dasharray: 7.0,7.0;"/><polygon fill="#A80036" points="233.5,143.7418,237.5,134.7418,233.5,138.7418,229.5,134.7418,233.5,143.7418" style="stroke: #A80036; stroke-width: 1.0;"/><!--MD5=[3499c440a9191ce94e33835b050b7ff2]
link Játékos to Új játék indítása--><path d="M128.6367,160.5 C138.5199,160.5 148.4031,160.5 158.2863,160.5 " fill="none" id="Játékos-&gt;Új játék indítása" style="stroke: #A80036; stroke-width: 1.0;"/><polygon fill="#A80036" points="163.4546,160.5,154.4546,156.5,158.4546,160.5,154.4546,164.5,163.4546,160.5" style="stroke: #A80036; stroke-width: 1.0;"/><!--MD5=[2ca1163efa17c223ed8ceefdf1890e14]
link Játékos to Lépés a játékban--><path d="M126.2338,202.1204 C136.3861,220.7069 147.9401,241.8596 156.3991,257.346 " fill="none" id="Játékos-&gt;Lépés a játékban" style="stroke: #A80036; stroke-width: 1.0;"/><polygon fill="#A80036" points="158.9199,261.9611,158.1158,252.1451,156.523,257.5731,151.095,255.9802,158.9199,261.9611" style="stroke: #A80036; stroke-width: 1.0;"/><!--MD5=[3f525927d4799d1960736ec1efef37cc]
link Új játék indítása to Lépés a játékban--><path d="M224.462,177.0464 C213.016,198.0015 193.2564,234.1767 180.5401,257.4573 " fill="none" id="Új játék indítása-&gt;Lépés a játékban" style="stroke: #A80036; stroke-width: 1.0;"/><polygon fill="#A80036" points="178.0953,261.9331,185.9202,255.9522,180.4922,257.5451,178.8994,252.1171,178.0953,261.9331" style="stroke: #A80036; stroke-width: 1.0;"/><!--MD5=[ff9d34f3d107de191ce649795ce2489d]
link Lépés a játékban to Játék vége--><path d="M168.5,297.2385 C168.5,312.8133 168.5,335.4453 168.5,351.6257 " fill="none" id="Lépés a játékban-&gt;Játék vége" style="stroke: #A80036; stroke-width: 1.0;"/><polygon fill="#A80036" points="168.5,356.8461,172.5,347.8461,168.5,351.8461,164.5,347.8461,168.5,356.8461" style="stroke: #A80036; stroke-width: 1.0;"/><!--MD5=[cb52bf9b0d8493325d4829e6f562e957]
@startuml
actor Játékos

Játékos -up-> (Játékosok neveinek megadása)
Játékos -up-> (Kilépés)
(Játékosok neveinek megadása) .down.> (Új játék indítása)
Játékos -right-> (Új játék indítása)
Játékos -down-> (Lépés a játékban)
(Új játék indítása) -down-> (Lépés a játékban)
(Lépés a játékban) -down-> (Játék vége)
@enduml

PlantUML version 1.2019.12(Sun Nov 03 10:24:54 UTC 2019)
(GPL source distribution)
Java Runtime: OpenJDK Runtime Environment
JVM: OpenJDK 64-Bit Server VM
Java Version: 1.8.0_232-heroku-b09
Operating System: Linux
Default Encoding: UTF-8
Language: en
Country: US
--></g></svg>